<?xml version="1.0" encoding="utf-8"?>
<!-- Generator: Adobe Illustrator 26.2.1, SVG Export Plug-In . SVG Version: 6.00 Build 0)  -->
<svg version="1.1" id="hounds" xmlns="http://www.w3.org/2000/svg" xmlns:xlink="http://www.w3.org/1999/xlink" x="0px" y="0px"
	 viewBox="0 0 190 190" style="enable-background:new 0 0 190 190;" xml:space="preserve">
<style type="text/css">
	.st0{fill:#373838;}
</style>
<g id="away_-_PMS_11-0601_TPG">
	<path class="st0" d="M189.8,142.7v45.8h-4.1v-20.1h-27.2v20.1h-4.1v-45.8h4.1v21.8h27.2v-21.8H189.8z"/>
	<path class="st0" d="M135.6,142.2c2.7-0.1,5.3,0.6,7.6,1.9c2.2,1.3,4,3.3,5.1,5.7c1.3,2.9,1.9,6.1,1.8,9.3c0.1,3.1-0.5,6.1-1.6,9
		c-1,2.4-2.7,4.5-4.9,6c-2.4,1.5-5.2,2.2-8.1,2.1c-2.7,0.1-5.3-0.6-7.6-1.9c-2.2-1.3-4-3.3-5-5.7c-1.3-3-1.9-6.2-1.8-9.5
		c-0.1-3,0.5-6,1.6-8.8c1-2.4,2.6-4.5,4.8-5.9C129.9,142.7,132.7,142.1,135.6,142.2z M135.6,145.5c-2-0.1-3.9,0.5-5.5,1.6
		c-1.6,1.1-2.9,2.7-3.5,4.6c-0.9,2.4-1.3,4.9-1.2,7.4c0,2.4,0.3,4.8,1.1,7c0.6,1.9,1.8,3.6,3.4,4.8c1.7,1.2,3.8,1.8,5.9,1.7
		c2,0.1,3.9-0.5,5.6-1.5c1.6-1.1,2.9-2.7,3.6-4.6c0.9-2.4,1.3-4.9,1.3-7.5c0.1-2.4-0.3-4.8-1.1-7c-0.6-1.9-1.8-3.6-3.4-4.8
		C139.8,146,137.7,145.4,135.6,145.5L135.6,145.5z"/>
	<path class="st0" d="M105.8,142.2c1.7,0,3.4,0.3,5,0.7c1.5,0.4,2.8,1.2,4,2.1c1.1,1,2.1,2.2,2.6,3.5c0.7,1.6,1,3.3,0.9,5v22h-4.1
		v-21.6c0.1-2.2-0.7-4.3-2.2-6c-1.5-1.5-3.7-2.3-6.8-2.3c-2.4-0.1-4.7,0.6-6.6,2.1c-1.7,1.4-2.5,3.6-2.5,6.5v21.3H92v-32.7h3.4
		l0.4,6.1c0.3-1.4,1-2.7,1.9-3.8c0.9-1,2.1-1.8,3.4-2.3C102.7,142.4,104.2,142.2,105.8,142.2z"/>
	<path class="st0" d="M86.1,142.7v32.7h-3.9v-4.8c-0.6,1-1.4,1.9-2.3,2.7c-1.1,0.9-2.3,1.5-3.6,2c-1.5,0.5-3.1,0.8-4.7,0.7
		c-2,0-4-0.4-5.8-1.3c-1.8-0.9-3.2-2.2-4.2-3.9c-1.1-2.1-1.6-4.4-1.6-6.8v-21.3h4.1v21c0,3,0.7,5.2,2.2,6.6c1.6,1.5,3.8,2.2,5.9,2.1
		c1.6,0,3.2-0.3,4.8-0.8c1.4-0.5,2.6-1.3,3.6-2.4c0.9-1.2,1.4-2.6,1.4-4.1v-22.3L86.1,142.7L86.1,142.7z"/>
	<path class="st0" d="M43.6,142.2c3.8-0.2,7.5,1.4,10,4.3c2.5,2.8,3.7,7.1,3.7,12.9c0.1,3-0.4,6-1.5,8.9c-0.9,2.4-2.4,4.4-4.5,5.9
		c-2.2,1.5-4.9,2.2-7.6,2.1c-1.6,0-3.1-0.2-4.6-0.7c-1.2-0.4-2.3-1-3.3-1.7c-0.8-0.6-1.5-1.3-2.1-2.1c-0.4-0.5-0.8-1.1-1.1-1.7v20
		h-4.2v-47.1h3.3l0.4,6.7c0.2-0.7,0.5-1.3,0.9-2c0.5-0.9,1.2-1.7,1.9-2.4c1-0.9,2.1-1.6,3.4-2.1C40.1,142.4,41.8,142.1,43.6,142.2z
		 M43.1,145.5c-3.8,0-6.5,1.1-8.1,3.3c-1.6,2.2-2.4,5.8-2.4,10.8c0,2.4,0.3,4.7,1.1,7c0.6,1.8,1.7,3.4,3.2,4.5
		c1.8,1.1,3.9,1.7,6,1.6c2.8,0.1,5.5-1.1,7.4-3.2c1.9-2.1,2.8-5.4,2.8-9.9c0-4.3-0.8-7.8-2.5-10.3C49,146.8,46.1,145.3,43.1,145.5z"
		/>
	<path class="st0" d="M12,142.2c2.1,0,4.2,0.3,6.2,1.1c1.8,0.6,3.4,1.7,4.6,3.2c1.3,1.6,2,3.5,2.2,5.5h-3.9
		c-0.3-1.3-0.8-2.5-1.6-3.5s-1.9-1.7-3.1-2.2c-1.4-0.5-2.9-0.8-4.4-0.8c-2.1-0.1-4.1,0.4-5.9,1.4c-1.5,1-2.3,2.7-2.2,4.4
		c-0.1,1.2,0.3,2.4,1.1,3.3c0.9,0.9,2.1,1.6,3.4,1.8l7.3,1.9c2.2,0.5,4.2,1.6,6,3c1.5,1.4,2.4,3.3,2.2,5.4c0,1.7-0.4,3.4-1.3,4.9
		c-0.9,1.5-2.3,2.6-3.9,3.3c-2.1,0.8-4.3,1.2-6.6,1.1c-2.9,0.1-5.7-0.7-8.1-2.2c-2.1-1.6-3.3-4.1-3.3-6.8h3.8c0.2,1.6,1,3.1,2.2,4.1
		c1.5,1.1,3.4,1.7,5.3,1.6c2,0.1,4-0.4,5.7-1.5c1.5-1,2.3-2.7,2.2-4.5c0.1-1.2-0.5-2.4-1.5-3.2c-1.3-0.9-2.7-1.5-4.2-1.8l-7.1-1.9
		c-1.2-0.3-2.3-0.8-3.4-1.4c-0.8-0.5-1.5-1.2-2.1-2c-0.5-0.7-0.9-1.5-1.2-2.4c-0.2-0.8-0.4-1.7-0.4-2.5c-0.1-1.8,0.4-3.5,1.3-5
		c1-1.5,2.4-2.6,4-3.3C7.5,142.5,9.7,142.1,12,142.2z"/>
</g>
<g id="towards_-_PMS_11-0601_TPG">
	<path class="st0" d="M0,47.1V1.3h4.1v20.1h27.2V1.3h4.1V47h-4.1V25.2H4.1v21.9H0z"/>
	<path class="st0" d="M54.3,47.6c-2.7,0.1-5.3-0.6-7.6-1.9c-2.2-1.3-4-3.3-5.1-5.7c-1.3-2.9-1.9-6.1-1.8-9.3c-0.1-3.1,0.5-6.1,1.6-9
		c1-2.4,2.7-4.5,4.9-6c2.4-1.5,5.2-2.2,8.1-2.1c2.7-0.1,5.3,0.6,7.6,1.9c2.2,1.3,4,3.3,5,5.7c1.3,3,1.9,6.2,1.8,9.5
		c0.1,3-0.5,6-1.6,8.8c-1,2.4-2.6,4.5-4.8,5.9C59.8,47.1,57,47.7,54.3,47.6z M54.3,44.3c2,0.1,3.9-0.5,5.5-1.6s2.9-2.7,3.5-4.6
		c0.9-2.4,1.3-4.9,1.2-7.4c0-2.4-0.3-4.8-1.1-7c-0.6-1.9-1.8-3.6-3.4-4.9c-1.7-1.2-3.8-1.8-5.9-1.7c-2-0.1-3.9,0.5-5.6,1.5
		c-1.6,1.1-2.9,2.7-3.6,4.5c-0.9,2.4-1.3,4.9-1.3,7.5c0,2.4,0.3,4.8,1.1,7c0.6,1.9,1.8,3.6,3.4,4.8C50.1,43.8,52.2,44.4,54.3,44.3
		L54.3,44.3z"/>
	<path class="st0" d="M84,47.6c-1.7,0-3.4-0.3-5-0.7c-1.5-0.4-2.8-1.2-4-2.1c-1.2-1-2.1-2.2-2.6-3.5c-0.6-1.6-1-3.3-0.9-5v-22h4.1
		V36c-0.1,2.2,0.7,4.3,2.2,6c1.5,1.5,3.7,2.3,6.8,2.3c2.4,0.1,4.7-0.6,6.6-2.1c1.7-1.4,2.5-3.6,2.5-6.5V14.3h4.1V47h-3.4l-0.5-6.1
		c-0.3,1.4-1,2.7-2,3.8c-0.9,1-2.1,1.8-3.3,2.3C87.1,47.5,85.6,47.6,84,47.6z"/>
	<path class="st0" d="M103.7,47.1V14.3h3.9v4.8c0.6-1,1.4-1.9,2.3-2.7c1.1-0.9,2.3-1.5,3.6-2c1.5-0.5,3.1-0.8,4.7-0.7
		c2,0,4,0.4,5.8,1.3s3.2,2.2,4.2,3.9c1.1,2.1,1.7,4.4,1.6,6.8V47h-4.1V26c0-3-0.7-5.2-2.2-6.6c-1.6-1.5-3.8-2.2-5.9-2.1
		c-1.6,0-3.2,0.3-4.8,0.8c-1.4,0.5-2.6,1.3-3.6,2.4c-0.9,1.2-1.4,2.6-1.4,4.1v22.3h-4.1V47.1z"/>
	<path class="st0" d="M146.2,47.6c-3.8,0.2-7.5-1.4-10-4.2c-2.5-2.8-3.7-7.1-3.7-12.9c-0.1-3,0.4-6,1.5-8.9c0.9-2.4,2.4-4.4,4.5-5.9
		c2.2-1.5,4.9-2.2,7.6-2.1c1.6,0,3.1,0.2,4.6,0.7c1.2,0.4,2.3,1,3.3,1.7c0.8,0.6,1.5,1.3,2.1,2.1c0.4,0.5,0.8,1.1,1.1,1.7V0h4.2
		v47.1h-3.3l-0.4-6.7c-0.2,0.7-0.5,1.3-0.9,2c-0.5,0.9-1.2,1.7-1.9,2.4c-1,0.9-2.1,1.6-3.4,2.1C149.7,47.5,147.9,47.7,146.2,47.6z
		 M146.7,44.3c3.8,0,6.5-1.1,8.1-3.3c1.6-2.2,2.3-5.8,2.3-10.8c0-2.4-0.3-4.7-1.1-7c-0.5-1.8-1.7-3.4-3.2-4.5
		c-1.8-1.1-3.9-1.7-6-1.6c-2.8-0.1-5.5,1.1-7.4,3.2c-1.9,2.1-2.8,5.4-2.8,9.9c0,4.3,0.8,7.8,2.5,10.3
		C140.9,43,143.8,44.5,146.7,44.3L146.7,44.3z"/>
	<path class="st0" d="M177.8,47.6c-2.1,0-4.2-0.3-6.2-1.1c-3.8-1.3-6.5-4.7-6.8-8.6h4c0.3,1.3,0.8,2.5,1.6,3.5
		c0.8,1,1.9,1.7,3.1,2.2c1.4,0.5,2.9,0.8,4.4,0.8c2.1,0.1,4.1-0.4,5.9-1.4c1.5-1,2.3-2.7,2.2-4.4c0.1-1.2-0.3-2.4-1.1-3.3
		c-0.9-0.9-2.1-1.6-3.4-1.8l-7.3-1.9c-2.2-0.5-4.3-1.6-6-3c-1.5-1.4-2.3-3.3-2.2-5.4c0-1.7,0.4-3.4,1.3-4.9c0.9-1.5,2.3-2.6,3.9-3.3
		c2.1-0.8,4.3-1.2,6.6-1.1c2.9-0.1,5.7,0.7,8.1,2.2c2.1,1.6,3.3,4.1,3.3,6.8h-3.8c-0.2-1.6-1-3.1-2.2-4.1c-1.5-1.1-3.4-1.7-5.3-1.6
		c-2-0.1-4,0.4-5.7,1.5c-1.5,1-2.3,2.7-2.2,4.5c-0.1,1.2,0.5,2.4,1.5,3.2c1.3,0.9,2.7,1.5,4.2,1.8l7.2,1.9c1.2,0.3,2.3,0.8,3.4,1.4
		c0.8,0.5,1.5,1.2,2.1,2c0.5,0.7,0.9,1.5,1.2,2.4c0.2,0.8,0.4,1.7,0.4,2.5c0,1.7-0.4,3.5-1.4,4.9c-1,1.5-2.4,2.6-4,3.3
		C182.3,47.4,180,47.7,177.8,47.6z"/>
</g>
</svg>
