<?xml version="1.0" encoding="utf-8"?>
<!-- Generator: Adobe Illustrator 26.2.1, SVG Export Plug-In . SVG Version: 6.00 Build 0)  -->
<svg version="1.1" id="hare" xmlns="http://www.w3.org/2000/svg" xmlns:xlink="http://www.w3.org/1999/xlink" x="0px" y="0px"
	 viewBox="0 0 190 190" style="enable-background:new 0 0 190 190;" xml:space="preserve">
<style type="text/css">
	.st0{fill:#373838;}
</style>
<g id="away_-_PMS_11-0601_TPG">
	<path class="st0" d="M190,114.6V190h-4.1v-34h-48.4v34h-4v-75.4h4v37.2h48.4v-37.2C185.9,114.6,190,114.6,190,114.6z"/>
	<path class="st0" d="M106.3,113.6c3.2-0.1,6.3,0.5,9.2,1.8c2.4,1.1,4.5,2.8,6,5.1c1.5,2.4,2.2,5.2,2.1,7.9c0,6-2,10.4-5.9,13.2
		c-3.9,2.7-10.3,4.3-19.3,4.6l-12.5,0.4v5.2c-0.2,3.7,1.2,7.3,3.8,10c2.5,2.5,6.4,3.8,11.6,3.8c3.6,0.1,7.1-0.8,10-2.7
		c2.7-1.9,4.3-4.8,5-8.7h4.4c-0.1,2.8-1.1,5.7-2.5,8.1c-1.6,2.4-3.8,4.2-6.4,5.4c-3.4,1.4-7,2-10.6,1.9c-3.5,0.1-7-0.6-10.1-1.9
		c-2.7-1.2-5.2-3.2-6.6-5.8c-1.7-3.1-2.5-6.4-2.4-9.9v-37.4h3.8l0.1,11c2.3-4.5,5.3-7.6,9-9.4C98.5,114.4,102.4,113.6,106.3,113.6z
		 M105.7,117.4c-2.3,0-4.6,0.4-6.9,1.3s-4.4,1.9-6.3,3.4c-1.8,1.3-3.4,2.8-4.6,4.8c-1.2,1.6-1.7,3.4-1.8,5.3v10.6l10.4-0.2
		c4.5,0,9.2-0.5,13.6-1.6c3.4-0.9,5.7-2.4,7.1-4.4c1.5-2.2,2.2-5,2.1-7.6c0.2-3.2-1.3-6.3-3.8-8.2
		C113.2,118.3,109.8,117.4,105.7,117.4z"/>
	<path class="st0" d="M72,114.6v53.9h-3.8v-8.1c-0.7,2.2-2.1,4.1-3.9,5.6c-1.6,1.3-3.5,2.2-5.5,2.7c-1.8,0.5-3.6,0.7-5.5,0.7
		c-1.1,0-2.1-0.1-3.3-0.2c-0.9-0.1-1.8-0.4-2.6-0.8v-4.2c0.9,0.4,1.9,0.6,2.8,0.7c0.9,0.1,2,0.2,3,0.2c1.5,0,3-0.2,4.4-0.5
		c1.7-0.4,3.4-1.1,4.7-2c1.6-0.9,3-2.4,3.8-4c1.1-2,1.6-4.3,1.5-6.5v-37.5C67.7,114.6,72,114.6,72,114.6z"/>
	<path class="st0" d="M21.5,113.6c4.3-0.1,8.7,1,12.5,3.2c3.7,2.2,6.6,5.5,8.4,9.4c2.1,4.6,3.2,9.8,3.1,15
		c0.1,5.3-0.8,10.4-2.7,15.3c-1.6,4-4.4,7.4-8,9.8c-3.8,2.3-8.2,3.5-12.7,3.4c-4.2,0.1-8.3-0.9-11.9-3.1c-3.4-2.1-6-5.3-7.6-8.9
		c-1.9-4.4-2.7-9.3-2.6-14.1v-3h41.3c0-3.9-0.7-7.7-2.1-11.3c-1.3-3.4-3.5-6.3-6.3-8.4c-2.8-2.2-6.6-3.3-11.2-3.3
		c-3.9-0.1-7.7,1-11,3.1c-3,1.9-5,5-5.5,8.4H0.6c0.6-3.2,2-6.2,4.2-8.7c2-2.3,4.6-4,7.5-5.1C15.3,114.1,18.5,113.6,21.5,113.6z
		 M41.1,144.5H4.3c0,3.7,0.6,7.3,1.9,10.8c1.2,3.1,3.3,5.7,5.9,7.5c3,1.9,6.5,2.8,10,2.7c3.8,0.2,7.6-0.9,10.8-3.2
		c2.7-2,4.9-4.9,6.1-8C40.4,151.3,41.1,147.9,41.1,144.5z"/>
</g>
<g id="towards_-_PMS_11-0601_TPG">
	<path class="st0" d="M0,75.4V0h4.1v34h48.4V0h4.1v75.4h-4.1V38.3H4.1v37.2L0,75.4L0,75.4z"/>
	<path class="st0" d="M83.7,76.4c-3.2,0.1-6.3-0.5-9.2-1.8c-2.4-1.1-4.5-2.8-6-5.1c-1.5-2.4-2.2-5.2-2.1-7.9c0-6,2-10.5,5.9-13.2
		s10.3-4.3,19.3-4.6l12.5-0.4v-5.3c0.2-3.7-1.2-7.3-3.8-10c-2.5-2.5-6.4-3.8-11.7-3.8c-3.6-0.1-7.1,0.8-10,2.7
		c-2.7,1.9-4.3,4.8-5,8.7h-4.4c0.1-2.8,1.1-5.7,2.5-8.1c1.6-2.4,3.9-4.3,6.5-5.4c3.4-1.4,7-2,10.6-1.9c3.5-0.1,7,0.5,10.1,1.9
		c2.8,1.2,5.2,3.2,6.8,5.8c1.7,3.1,2.5,6.4,2.4,9.9v37.4h-3.7l-0.3-10.9c-2.3,4.5-5.3,7.6-9,9.4C91.6,75.6,87.7,76.4,83.7,76.4z
		 M84.4,72.6c2.3,0,4.6-0.4,6.9-1.3c2.2-0.8,4.4-1.9,6.3-3.4c1.8-1.3,3.4-2.9,4.6-4.8c1.2-1.6,1.7-3.4,1.8-5.3V47.4l-10.4,0.2
		c-4.5,0-9.2,0.5-13.6,1.6c-3.4,1-5.7,2.4-7.1,4.4c-1.5,2.2-2.2,5-2.1,7.6c-0.1,3.2,1.3,6.2,3.7,8.2C77,71.6,80.3,72.6,84.4,72.6z"
		/>
	<path class="st0" d="M118.1,75.4V21.5h3.8v8c0.7-2.2,2.1-4.1,3.9-5.6c1.6-1.3,3.5-2.2,5.5-2.7c1.8-0.5,3.6-0.7,5.5-0.7
		c1.1,0,2.2,0.1,3.3,0.2c0.9,0.1,1.8,0.4,2.6,0.8v4.2c-0.9-0.4-1.9-0.6-2.8-0.7c-0.9-0.1-2-0.2-3-0.2c-1.5,0-3,0.2-4.4,0.5
		c-1.7,0.4-3.4,1.1-4.7,2c-1.6,1-3,2.3-3.8,4c-1.1,2-1.6,4.3-1.5,6.6v37.5L118.1,75.4L118.1,75.4z"/>
	<path class="st0" d="M168.6,76.4c-4.3,0.1-8.7-1-12.5-3.2c-3.7-2.2-6.6-5.5-8.4-9.4c-2.1-4.6-3.2-9.8-3.1-15
		c-0.1-5.3,0.8-10.5,2.7-15.3c1.6-4,4.3-7.4,7.9-9.8c3.8-2.3,8.2-3.5,12.7-3.4c4.2-0.1,8.3,1,11.9,3.1c3.4,2.1,6,5.3,7.6,8.9
		c1.9,4.4,2.7,9.3,2.6,14.1v3h-41.2c0,3.9,0.6,7.7,2,11.3c1.3,3.4,3.5,6.3,6.3,8.4c2.8,2.1,6.6,3.3,11.2,3.3c3.9,0.1,7.7-1,11-3.1
		c3-1.9,5-5,5.5-8.4h4.4c-0.6,3.2-2,6.2-4.2,8.7c-2.1,2.3-4.6,4-7.5,5.1C174.8,75.9,171.7,76.4,168.6,76.4z M149,45.5h36.6
		c0.1-3.7-0.6-7.3-1.9-10.8c-1.2-3.1-3.3-5.7-5.9-7.5c-3-1.9-6.5-3-10-2.7c-4.4,0-8,1.1-10.8,3.2c-2.7,2-4.9,4.9-6.1,8
		C149.7,38.7,149,42.1,149,45.5z"/>
</g>
</svg>
