<svg xmlns="http://www.w3.org/2000/svg" viewBox="0 0 128 128"><defs><style>.cls-1{fill:#f5f7f6;}.cls-2{fill:#373838;}.cls-3{fill:none;stroke:#373838;stroke-miterlimit:10;stroke-width:1.25px;}</style></defs><g id="bg"><circle id="bg_-_PMS_11-0601_TPG" data-name="bg - PMS 11-0601 TPG" class="cls-1" cx="64" cy="64" r="64"/></g><g id="board"><g id="dots_-_PMS_19-4305_TCX" data-name="dots - PMS 19-4305 TCX"><circle class="cls-2" cx="38.75" cy="38.75" r="5.05"/><circle class="cls-2" cx="64" cy="38.75" r="5.05"/><circle class="cls-2" cx="89.25" cy="38.75" r="5.05"/><circle class="cls-2" cx="38.75" cy="64" r="5.05"/><circle class="cls-2" cx="64" cy="64" r="5.05"/><circle class="cls-2" cx="89.25" cy="64" r="5.05"/><circle class="cls-2" cx="38.75" cy="89.25" r="5.05"/><circle class="cls-2" cx="64" cy="89.25" r="5.05"/><circle class="cls-2" cx="89.25" cy="89.25" r="5.05"/><circle class="cls-2" cx="13.51" cy="64" r="5.05"/><circle class="cls-2" cx="114.49" cy="64" r="5.05"/></g><g id="lines_-_PMS_19-4305_TCX" data-name="lines - PMS 19-4305 TCX"><line class="cls-3" x1="13.51" y1="64" x2="38.75" y2="38.75"/><path class="cls-3" d="M13.51,64H38.75"/><path class="cls-3" d="M13.51,64,38.75,89.25"/><path class="cls-3" d="M38.75,38.75,64,64"/><path class="cls-3" d="M38.75,38.75V64"/><path class="cls-3" d="M38.75,89.25V64"/><path class="cls-3" d="M38.75,64H64"/><path class="cls-3" d="M38.75,89.25,64,64"/><path class="cls-3" d="M38.75,89.25H64"/><path class="cls-3" d="M38.75,38.75H64"/><path class="cls-3" d="M64,64V38.75"/><path class="cls-3" d="M64,89.25V64"/><path class="cls-3" d="M89.25,38.75,64,64"/><path class="cls-3" d="M89.25,89.25,64,64"/><path class="cls-3" d="M64,38.75H89.25"/><path class="cls-3" d="M64,89.25H89.25"/><path class="cls-3" d="M64,64H89.25"/><path class="cls-3" d="M89.25,38.75V64"/><path class="cls-3" d="M89.25,89.25V64"/><path class="cls-3" d="M89.25,38.75,114.49,64"/><path class="cls-3" d="M89.25,89.25,114.49,64"/><path class="cls-3" d="M89.25,64h25.24"/></g></g></svg>