<svg xmlns="http://www.w3.org/2000/svg" viewBox="0 0 512 512"><defs><style>.cls-1{fill:#f5f7f6;}.cls-2{fill:#373838;}.cls-3{fill:none;stroke:#373838;stroke-miterlimit:10;stroke-width:5px;}</style></defs><g id="bg"><circle id="bg_-_PMS_11-0601_TPG" data-name="bg - PMS 11-0601 TPG" class="cls-1" cx="256" cy="256" r="256"/></g><g id="board"><g id="dots_-_PMS_19-4305_TCX" data-name="dots - PMS 19-4305 TCX"><circle class="cls-2" cx="155.01" cy="155.01" r="20.2"/><circle class="cls-2" cx="256" cy="155.01" r="20.2"/><circle class="cls-2" cx="356.99" cy="155.01" r="20.2"/><circle class="cls-2" cx="155.01" cy="256" r="20.2"/><circle class="cls-2" cx="256" cy="256" r="20.2"/><circle class="cls-2" cx="356.99" cy="256" r="20.2"/><circle class="cls-2" cx="155.01" cy="356.99" r="20.2"/><circle class="cls-2" cx="256" cy="356.99" r="20.2"/><circle class="cls-2" cx="356.99" cy="356.99" r="20.2"/><circle class="cls-2" cx="54.02" cy="256" r="20.2"/><circle class="cls-2" cx="457.98" cy="256" r="20.2"/></g><g id="lines_-_PMS_19-4305_TCX" data-name="lines - PMS 19-4305 TCX"><line class="cls-3" x1="54.02" y1="256" x2="155.01" y2="155.01"/><path class="cls-3" d="M54,256H155"/><path class="cls-3" d="M54,256,155,357"/><path class="cls-3" d="M155,155,256,256"/><path class="cls-3" d="M155,155V256"/><path class="cls-3" d="M155,357V256"/><path class="cls-3" d="M155,256H256"/><path class="cls-3" d="M155,357,256,256"/><path class="cls-3" d="M155,357H256"/><path class="cls-3" d="M155,155H256"/><path class="cls-3" d="M256,256V155"/><path class="cls-3" d="M256,357V256"/><path class="cls-3" d="M357,155,256,256"/><path class="cls-3" d="M357,357,256,256"/><path class="cls-3" d="M256,155H357"/><path class="cls-3" d="M256,357H357"/><path class="cls-3" d="M256,256H357"/><path class="cls-3" d="M357,155V256"/><path class="cls-3" d="M357,357V256"/><path class="cls-3" d="M357,155,458,256"/><path class="cls-3" d="M357,357,458,256"/><path class="cls-3" d="M357,256H458"/></g></g></svg>