<svg xmlns="http://www.w3.org/2000/svg" viewBox="0 0 256 256"><defs><style>.cls-1{fill:#f5f7f6;}.cls-2{fill:#373838;}.cls-3{fill:none;stroke:#373838;stroke-miterlimit:10;stroke-width:2.5px;}</style></defs><g id="bg"><circle id="bg_-_PMS_11-0601_TPG" data-name="bg - PMS 11-0601 TPG" class="cls-1" cx="128" cy="128" r="128"/></g><g id="board"><g id="dots_-_PMS_19-4305_TCX" data-name="dots - PMS 19-4305 TCX"><circle class="cls-2" cx="77.51" cy="77.51" r="10.1"/><circle class="cls-2" cx="128" cy="77.51" r="10.1"/><circle class="cls-2" cx="178.49" cy="77.51" r="10.1"/><circle class="cls-2" cx="77.51" cy="128" r="10.1"/><circle class="cls-2" cx="128" cy="128" r="10.1"/><circle class="cls-2" cx="178.49" cy="128" r="10.1"/><circle class="cls-2" cx="77.51" cy="178.49" r="10.1"/><circle class="cls-2" cx="128" cy="178.49" r="10.1"/><circle class="cls-2" cx="178.49" cy="178.49" r="10.1"/><circle class="cls-2" cx="27.01" cy="128" r="10.1"/><circle class="cls-2" cx="228.99" cy="128" r="10.1"/></g><g id="lines_-_PMS_19-4305_TCX" data-name="lines - PMS 19-4305 TCX"><line class="cls-3" x1="27.01" y1="128" x2="77.51" y2="77.51"/><path class="cls-3" d="M27,128h50.5"/><path class="cls-3" d="M27,128l50.5,50.49"/><path class="cls-3" d="M77.51,77.51,128,128"/><path class="cls-3" d="M77.51,77.51V128"/><path class="cls-3" d="M77.51,178.49V128"/><path class="cls-3" d="M77.51,128H128"/><path class="cls-3" d="M77.51,178.49,128,128"/><path class="cls-3" d="M77.51,178.49H128"/><path class="cls-3" d="M77.51,77.51H128"/><path class="cls-3" d="M128,128V77.51"/><path class="cls-3" d="M128,178.49V128"/><path class="cls-3" d="M178.49,77.51,128,128"/><path class="cls-3" d="M178.49,178.49,128,128"/><path class="cls-3" d="M128,77.51h50.49"/><path class="cls-3" d="M128,178.49h50.49"/><path class="cls-3" d="M128,128h50.49"/><path class="cls-3" d="M178.49,77.51V128"/><path class="cls-3" d="M178.49,178.49V128"/><path class="cls-3" d="M178.49,77.51,229,128"/><path class="cls-3" d="M178.49,178.49,229,128"/><path class="cls-3" d="M178.49,128H229"/></g></g></svg>