<svg xmlns="http://www.w3.org/2000/svg" viewBox="0 0 1080 1080"><defs><style>.cls-1{fill:#f5f7f6;}.cls-2{fill:#373838;}.cls-3{fill:none;stroke:#373838;stroke-miterlimit:10;stroke-width:10px;}</style></defs><g id="bg"><circle id="bg_-_PMS_11-0601_TPG" data-name="bg - PMS 11-0601 TPG" class="cls-1" cx="540" cy="540" r="540"/></g><g id="board"><g id="dots_-_PMS_19-4305_TCX" data-name="dots - PMS 19-4305 TCX"><circle class="cls-2" cx="326.97" cy="326.97" r="42.61"/><circle class="cls-2" cx="540" cy="326.97" r="42.61"/><circle class="cls-2" cx="753.03" cy="326.97" r="42.61"/><circle class="cls-2" cx="326.97" cy="540" r="42.61"/><circle class="cls-2" cx="540" cy="540" r="42.61"/><circle class="cls-2" cx="753.03" cy="540" r="42.61"/><circle class="cls-2" cx="326.97" cy="753.03" r="42.61"/><circle class="cls-2" cx="540" cy="753.03" r="42.61"/><circle class="cls-2" cx="753.03" cy="753.03" r="42.61"/><circle class="cls-2" cx="113.95" cy="540" r="42.61"/><circle class="cls-2" cx="966.05" cy="540" r="42.61"/></g><g id="lines_-_PMS_19-4305_TCX" data-name="lines - PMS 19-4305 TCX"><line class="cls-3" x1="113.95" y1="540" x2="326.97" y2="326.97"/><path class="cls-3" d="M114,540H327"/><path class="cls-3" d="M114,540,327,753"/><path class="cls-3" d="M327,327,540,540"/><path class="cls-3" d="M327,327V540"/><path class="cls-3" d="M327,753V540"/><path class="cls-3" d="M327,540H540"/><path class="cls-3" d="M327,753,540,540"/><path class="cls-3" d="M327,753H540"/><path class="cls-3" d="M327,327H540"/><path class="cls-3" d="M540,540V327"/><path class="cls-3" d="M540,753V540"/><path class="cls-3" d="M753,327,540,540"/><path class="cls-3" d="M753,753,540,540"/><path class="cls-3" d="M540,327H753"/><path class="cls-3" d="M540,753H753"/><path class="cls-3" d="M540,540H753"/><path class="cls-3" d="M753,327V540"/><path class="cls-3" d="M753,753V540"/><path class="cls-3" d="M753,327l213,213"/><path class="cls-3" d="M753,753l213-213"/><path class="cls-3" d="M753,540h213"/></g></g></svg>