<svg xmlns="http://www.w3.org/2000/svg" viewBox="0 0 64 64"><defs><style>.cls-1{fill:#f5f7f6;}.cls-2{fill:#373838;}.cls-3{fill:none;stroke:#373838;stroke-miterlimit:10;stroke-width:0.75px;}</style></defs><g id="bg"><circle id="bg_-_PMS_11-0601_TPG" data-name="bg - PMS 11-0601 TPG" class="cls-1" cx="32" cy="32" r="32"/></g><g id="board"><g id="dots_-_PMS_19-4305_TCX" data-name="dots - PMS 19-4305 TCX"><circle class="cls-2" cx="19.38" cy="19.38" r="2.52"/><circle class="cls-2" cx="32" cy="19.38" r="2.52"/><circle class="cls-2" cx="44.62" cy="19.38" r="2.52"/><circle class="cls-2" cx="19.38" cy="32" r="2.52"/><circle class="cls-2" cx="32" cy="32" r="2.52"/><circle class="cls-2" cx="44.62" cy="32" r="2.52"/><circle class="cls-2" cx="19.38" cy="44.62" r="2.52"/><circle class="cls-2" cx="32" cy="44.62" r="2.52"/><circle class="cls-2" cx="44.62" cy="44.62" r="2.52"/><circle class="cls-2" cx="6.75" cy="32" r="2.52"/><circle class="cls-2" cx="57.25" cy="32" r="2.52"/></g><g id="lines_-_PMS_19-4305_TCX" data-name="lines - PMS 19-4305 TCX"><line class="cls-3" x1="6.75" y1="32" x2="19.38" y2="19.38"/><path class="cls-3" d="M6.75,32H19.38"/><path class="cls-3" d="M6.75,32,19.38,44.62"/><path class="cls-3" d="M19.38,19.38,32,32"/><path class="cls-3" d="M19.38,19.38V32"/><path class="cls-3" d="M19.38,44.62V32"/><path class="cls-3" d="M19.38,32H32"/><path class="cls-3" d="M19.38,44.62,32,32"/><path class="cls-3" d="M19.38,44.62H32"/><path class="cls-3" d="M19.38,19.38H32"/><path class="cls-3" d="M32,32V19.38"/><path class="cls-3" d="M32,44.62V32"/><path class="cls-3" d="M44.62,19.38,32,32"/><path class="cls-3" d="M44.62,44.62,32,32"/><path class="cls-3" d="M32,19.38H44.62"/><path class="cls-3" d="M32,44.62H44.62"/><path class="cls-3" d="M32,32H44.62"/><path class="cls-3" d="M44.62,19.38V32"/><path class="cls-3" d="M44.62,44.62V32"/><path class="cls-3" d="M44.62,19.38,57.25,32"/><path class="cls-3" d="M44.62,44.62,57.25,32"/><path class="cls-3" d="M44.62,32H57.25"/></g></g></svg>